/* XPM */
static const char *collectible[] = {
/* columns rows colors chars-per-pixel */
"64 64 159 2 ",
"   c #172B3F",
".  c #17283B",
"X  c #2F2D2F",
"o  c #3C2D26",
"O  c #372E29",
"+  c #272D37",
"@  c #2B2D33",
"#  c #232D3A",
"$  c #312F31",
"%  c #343030",
"&  c #511E06",
"*  c #4C230F",
"=  c #58260A",
"-  c #552A0F",
";  c #5B2C0E",
":  c #4A2410",
">  c #4F2B14",
",  c #462C1F",
"<  c #4B2E1D",
"1  c #532711",
"2  c #542C12",
"3  c #592D11",
"4  c #4C311E",
"5  c #563116",
"6  c #5C3214",
"7  c #543219",
"8  c #613312",
"9  c #462F20",
"0  c #482F20",
"q  c #453123",
"w  c #4B3323",
"e  c #47392F",
"r  c #4C382A",
"t  c #563C26",
"y  c #794215",
"u  c #754619",
"i  c #774A1C",
"p  c #7C4B1B",
"a  c #764C20",
"s  c #152C41",
"d  c #182D40",
"f  c #814D18",
"g  c #8E551B",
"h  c #915A1D",
"j  c #AB4C16",
"k  c #A64718",
"l  c #AB4E18",
"z  c #BC4D14",
"x  c #AE5119",
"c  c #AF581B",
"v  c #B65519",
"b  c #B9561B",
"n  c #B65C1B",
"m  c #BA5A1A",
"M  c #9D621D",
"N  c #B7641E",
"B  c #B9671E",
"V  c #BB6A1F",
"C  c #996422",
"Z  c #956B30",
"A  c #987033",
"S  c #A06721",
"D  c #AA6820",
"F  c #B76720",
"G  c #B86420",
"H  c #B26C20",
"J  c #BA6B20",
"K  c #A77223",
"L  c #B07724",
"P  c #B37B24",
"I  c #BA7F24",
"U  c #C45315",
"Y  c #C35E17",
"T  c #CA6319",
"R  c #C56B1D",
"E  c #C0701F",
"W  c #CC741F",
"Q  c #D0771F",
"!  c #C47420",
"~  c #C97621",
"^  c #CB7C21",
"/  c #C67F28",
"(  c #D07B22",
")  c #9D7B43",
"_  c #BD8325",
"`  c #BD8C28",
"'  c #BF902B",
"]  c #A88138",
"[  c #C38524",
"{  c #CE8425",
"}  c #CA8C27",
"|  c #D38424",
" . c #D58A25",
".. c #DC8C23",
"X. c #D68F28",
"o. c #CE9226",
"O. c #CE9428",
"+. c #D19627",
"@. c #DE9426",
"#. c #D49329",
"$. c #D99629",
"%. c #D59B2A",
"&. c #DB9B2B",
"*. c #CF8F38",
"=. c #D19035",
"-. c #DE9F31",
";. c #E48F23",
":. c #E39425",
">. c #EA9525",
",. c #E59A26",
"<. c #E99E26",
"1. c #E29C28",
"2. c #EA9E28",
"3. c #F09D27",
"4. c #DEA22C",
"5. c #D7A63F",
"6. c #DCA239",
"7. c #E5A126",
"8. c #EAA426",
"9. c #E9AC27",
"0. c #E4A42A",
"q. c #ECA32A",
"w. c #E5AB2B",
"e. c #EAAB2A",
"r. c #F4A62A",
"t. c #F5A92A",
"y. c #E9B027",
"u. c #E6B32E",
"i. c #EAB22A",
"p. c #E9B92D",
"a. c #F1B229",
"s. c #E1A530",
"d. c #E5AF31",
"f. c #E7B030",
"g. c #EAB633",
"h. c #E7B931",
"j. c #EABC36",
"k. c #ECB83B",
"l. c #F2BB32",
"z. c #EBC335",
"x. c #EFC53C",
"c. c #EDCD39",
"v. c #F2C635",
"b. c #A68447",
"n. c #C59E42",
"m. c #CEA541",
"M. c #C5A049",
"N. c #C9A748",
"B. c #E9BD48",
"V. c #E2BB54",
"C. c #ECC44D",
"Z. c #EBC655",
"A. c #FADE5E",
"S. c #FAE15D",
"D. c #F7D764",
"F. c #F4DB60",
"G. c #EBD179",
"H. c #FBE56B",
"J. c #FFEA82",
/* pixels */
". . . . . . . . . . . . . . . . . . . . . . . . . . . . . . . . . . . . . . . . . . . . . . . . . . . . . . . . . . . . . . . . ",
". . . . . . . . . . . . . . . . . . . . . . . . . . . . . . . . . . . . . . . . . . . . . . . . . . . . . . . . . . . . . . . . ",
". . . . . . . . . . . . . . . . . . . . . . . . . . . . . . . . . . . . . . . . . . . . . . . . . . . . . . . . . . . . . . . . ",
". . . . . . . . . . . . . . . . . . . . . . . . . . . . . . . . . . . . . . . . . . . . . . . . . . . . . . . . . . . . . . . . ",
". . . . . . . . . . . . . . . . . . . . . . . . . . . . . . . . . . . . . . . . . . . . . . . . . . . . . . . . . . . . . . . . ",
". . . . . . . . . . . . . . . . . . . . . . . . . . . . . . . . . . . . . . . . . . . . . . . . . . . . . . . . . . . . . . . . ",
". . . . . . . . . . . . . . . . . . . . . . . . . . . . . . . . . . . . . . . . . . . . . . . . . . . . . . . . . . . . . . . . ",
". . . . . . . . . . . . . . . . . . . . . . . . . . . . . . . . . . . . . . . . . . . . . . . . . . . . . . . . . . . . . . . . ",
". . . . . . . . . . . . . . . . . . . . . . . . . . . . . . . . . . . . . . . . . . . . . . . . . . . . . . . . . . . . . . . . ",
". . . . . . . . . . . . . . . . . . . . . . . . . . . . . . . . . . . . . . . . . . . . . . . . . . . . . . . . . . . . . . . . ",
". . . . . . . . . . . . . . . . . . . . . . . . . . . . . . . . . . . . . . . . . . . . . . . . . . . . . . . . . . . . . . . . ",
". . . . . . . . . . . . . . . . . . . . . . . . . . . . . . . . . . . . . . . . . . . . . . . . . . . . . . . . . . . . . . . . ",
". . . . . . . . . . . . . . . . . . . . . . . . . . . . . . . . . . . . . . . . . . . . . . . . . . . . . . . . . . . . . . . . ",
". . . . . . . . . . . . . . . . . . . . . . . . . . . . . . . . . . . . . . . . . . . . . . . . . . . . . . . . . . . . . . . . ",
". . . . . . . . . . . . . . . . . . . . . . . . . . . . . . . . . . . . . . . . . . . . . . . . . . . . . . . . . . . . . . . . ",
". . . . . . . . . . . . . . . . . . . . . . . . . . . . . . . . . . . . . . . . . . . . . . . . . . . . . . . . . . . . . . . . ",
". . . . . . . . . . . . . . . . . . . . . . . . . . . . . . . . . . . . . . . . . . . . . . . . . . . . . . . . . . . . . . . . ",
". . . . . . . . . . . . . . . . . . . . . . . . . . . . . . . . . . . . . . . . . . . . . . . . . . . . . . . . . . . . . . . . ",
". . . . . . . . . . . . . . . . . . . . . . . . . . . . . . . . . . . . . . . . . . . . . . . . . . . . . . . . . . . . . . . . ",
". . . . . . . . . . . . . . . . . . . . . . . . . . # + + + + + # + + + + . . . . . . . . . . . . . . . . . . . . . . . . . . . ",
". . . . . . . . . . . . . . . . . . . . . . . . . s O 2 > > > > > 2 2 > - @ s . . . . . . . . . . . . . . . . . . . . . . . . . ",
". . . . . . . . . . . . . . . . . . . . . . . . + + r y u i u i i i i a p e + + . . . . . . . . . . . . . . . . . . . . . . . . ",
". . . . . . . . . . . . . . . . . . . . . . . d q - g >.1.u.w.f.g.C.C.Z.D.Z = w s . . . . . . . . . . . . . . . . . . . . . . . ",
". . . . . . . . . . . . . . . . . . . . . . . . w 3 h >.:.w.w.w.d.B.B.Z.D.A 3 r . # . . . . . . . . . . . . . . . . . . . . . . ",
". . . . . . . . . . . . . . . . . . . . . . 7 2 K 4.&.e.@.Y T T T T T s.j.V.G.) 2 w . . . . . . . . . . . . . . . . . . . . . . ",
". . . . . . . . . . . . . . . . . . . . d . 5 1 P l.w.g.@.z U U U U U 7.p.Z.J.b.& < d . . . . . . . . . . . . . . . . . . . . . ",
". . . . . . . . . . . . . . . . . . . + 0 w L _ %.h.$.~ | ......;.:.:.| ^ -.k.5.N.] < w . . . . . . . . . . . . . . . . . . . . ",
". . . . . . . . . . . . . . . . . . . + 6 8 %.9.u.z.#.b ( q.8.8.8.8.q.R v ..9.k.S.m.; 5 . . . . . . . . . . . . . . . . . . . . ",
". . . . . . . . . . . . . . . . . . . + 5 6 o.0.X.{ | ( ..8.<.9.9.i.p.@. . .^ 6.F.n.2 5 . . . . . . . . . . . . . . . . . . . . ",
". . . . . . . . . . . . . . . . . . . + 5 6 o.w.E k W >.:.8.8.i.p.c.c.i.a.^ j *.H.M.- 5 # . . . . . . . . . . . . . . . . . . . ",
". . . . . . . . . . . . . . . . . . . + 5 6 o.w.! x W ;.:.8.8.i.p.z.z.9.8.^ l =.A.n.- 5 . . . . . . . . . . . . . . . . . . . . ",
". . . . . . . . . . . . . . . . . . . # 2 6 o.w.^ v W ;.:.9.9.9.9.i.i.7.8.^ v { v.' 2 5 # . . . . . . . . . . . . . . . . . . . ",
". . . . . . . . . . . . . . . . . . . # 2 6 o.w.^ b Q ;.:.9.9.e.i.y.i.,.<.( b { v.` 2 5 . . . . . . . . . . . . . . . . . . . . ",
". . . . . . . . . . . . . . . . . . . # 2 6 +.e.^ m Q ;.:.9.e.i.y.i.i.,.:.^ n { i._ 2 5 . . . . . . . . . . . . . . . . . . . . ",
". . . . . . . . . . . . . . . . . . . # 2 6 %.i.^ v W >.,.e.e.i.i.i.i.,.,.~ l ^ e.I 2 7 . . . . . . . . . . . . . . . . . . . . ",
". . . . . . . . . . . . . . . . . . . # 5 6 O.0.$.$. .W | 1.1.7.7.7.7.| ^ X.%.$.0.I 2 7 . . . . . . . . . . . . . . . . . . . . ",
". . . . . . . . . . . . . . . . . . . # 5 6 %.9.u.z.#.c ! :.:.,.,.,.<.~ G $.z.w.q.[ 3 5 . . . . . . . . . . . . . . . . . . . . ",
". . . . . . . . . . . . . . . . . . . # 9 4 K P +.w.$./ |  . . . . . .{ / $.w.} P C , q . . . . . . . . . . . . . . . . . . . . ",
". . . . . . . . . . . . . . . . . . . . . . > : H >.0.x.s.N F F F N N 4.u.7.3.M * < d . . . . . . . . . . . . . . . . . . . . . ",
". . . . . . . . . . . . . . . . . . . . . # 5 2 D ..&.j.&.B V J J V V &.w.$.:.M 2 7 . . . . . . . . . . . . . . . . . . . . . . ",
". . . . . . . . . . . . . . . . . . . . . . # . w 3 S q.1.@.@.@.@.@.@.1.q.h 6 r # # . . . . . . . . . . . . . . . . . . . . . . ",
". . . . . . . . . . . . . . . . . . . . . . . d w - S r.2.2.8.<.<.<.2.2.t.h - q s . . . . . . . . . . . . . . . . . . . . . . . ",
". . . . . . . . . . . . . . . . . . . . . . . . + @ t f p p p p p p p p f r + + . . . . . . . . . . . . . . . . . . . . . . . . ",
". . . . . . . . . . . . . . . . . . . . . . . . . s o ; 2 2 2 2 2 2 2 2 ; X s . . . . . . . . . . . . . . . . . . . . . . . . . ",
". . . . . . . . . . . . . . . . . . . . . . . . . . + % $ $ $ $ $ $ $ % % + . . . . . . . . . . . . . . . . . . . . . . . . . . ",
". . . . . . . . . . . . . . . . . . . . . . . . . . .                 .   . . . . . . . . . . . . . . . . . . . . . . . . . . . ",
". . . . . . . . . . . . . . . . . . . . . . . . . . . . . . . . . . . . . . . . . . . . . . . . . . . . . . . . . . . . . . . . ",
". . . . . . . . . . . . . . . . . . . . . . . . . . . . . . . . . . . . . . . . . . . . . . . . . . . . . . . . . . . . . . . . ",
". . . . . . . . . . . . . . . . . . . . . . . . . . . . . . . . . . . . . . . . . . . . . . . . . . . . . . . . . . . . . . . . ",
". . . . . . . . . . . . . . . . . . . . . . . . . . . . . . . . . . . . . . . . . . . . . . . . . . . . . . . . . . . . . . . . ",
". . . . . . . . . . . . . . . . . . . . . . . . . . . . . . . . . . . . . . . . . . . . . . . . . . . . . . . . . . . . . . . . ",
". . . . . . . . . . . . . . . . . . . . . . . . . . . . . . . . . . . . . . . . . . . . . . . . . . . . . . . . . . . . . . . . ",
". . . . . . . . . . . . . . . . . . . . . . . . . . . . . . . . . . . . . . . . . . . . . . . . . . . . . . . . . . . . . . . . ",
". . . . . . . . . . . . . . . . . . . . . . . . . . . . . . . . . . . . . . . . . . . . . . . . . . . . . . . . . . . . . . . . ",
". . . . . . . . . . . . . . . . . . . . . . . . . . . . . . . . . . . . . . . . . . . . . . . . . . . . . . . . . . . . . . . . ",
". . . . . . . . . . . . . . . . . . . . . . . . . . . . . . . . . . . . . . . . . . . . . . . . . . . . . . . . . . . . . . . . ",
". . . . . . . . . . . . . . . . . . . . . . . . . . . . . . . . . . . . . . . . . . . . . . . . . . . . . . . . . . . . . . . . ",
". . . . . . . . . . . . . . . . . . . . . . . . . . . . . . . . . . . . . . . . . . . . . . . . . . . . . . . . . . . . . . . . ",
". . . . . . . . . . . . . . . . . . . . . . . . . . . . . . . . . . . . . . . . . . . . . . . . . . . . . . . . . . . . . . . . ",
". . . . . . . . . . . . . . . . . . . . . . . . . . . . . . . . . . . . . . . . . . . . . . . . . . . . . . . . . . . . . . . . ",
". . . . . . . . . . . . . . . . . . . . . . . . . . . . . . . . . . . . . . . . . . . . . . . . . . . . . . . . . . . . . . . . ",
". . . . . . . . . . . . . . . . . . . . . . . . . . . . . . . . . . . . . . . . . . . . . . . . . . . . . . . . . . . . . . . . ",
". . . . . . . . . . . . . . . . . . . . . . . . . . . . . . . . . . . . . . . . . . . . . . . . . . . . . . . . . . . . . . . . ",
". . . . . . . . . . . . . . . . . . . . . . . . . . . . . . . . . . . . . . . . . . . . . . . . . . . . . . . . . . . . . . . . "
};
