/* XPM */
static const char *exit[] = {
/* columns rows colors chars-per-pixel */
"64 64 175 2 ",
"   c #182537",
".  c #14273D",
"X  c #192739",
"o  c #162A3E",
"O  c #17283B",
"+  c #2F2A2D",
"@  c #3A2B26",
"#  c #352C2B",
"$  c #392D2B",
"%  c #3D322E",
"&  c #222733",
"*  c #2A2C35",
"=  c #222C3A",
"-  c #292E39",
";  c #312F33",
":  c #303036",
">  c #3A3231",
",  c #313339",
"<  c #3E393F",
"1  c #472C1E",
"2  c #4D2D1B",
"3  c #53321D",
"4  c #5B361F",
"5  c #5D381F",
"6  c #422B21",
"7  c #4D3223",
"8  c #43342D",
"9  c #4B362D",
"0  c #543422",
"q  c #5B3720",
"w  c #5D3921",
"e  c #5B3D2A",
"r  c #413734",
"t  c #453A36",
"y  c #403639",
"u  c #403D3E",
"i  c #4C3D3A",
"p  c #523D35",
"a  c #623D24",
"s  c #603E28",
"d  c #5F412E",
"f  c #5C4335",
"g  c #664027",
"h  c #684327",
"j  c #65422A",
"k  c #6B462C",
"l  c #6D482C",
"z  c #704728",
"x  c #744A2D",
"c  c #7A4F2C",
"v  c #7C502F",
"b  c #654633",
"n  c #694933",
"m  c #644B3B",
"M  c #6E4E3A",
"N  c #744D32",
"B  c #7A4F31",
"V  c #765033",
"C  c #7D5332",
"Z  c #73523B",
"A  c #7F5738",
"S  c #7E593E",
"D  c #152A41",
"F  c #192E41",
"G  c #152B4E",
"H  c #1B2D4D",
"J  c #193145",
"K  c #16334A",
"L  c #1B354B",
"P  c #1C3A4F",
"I  c #0E2950",
"U  c #142C52",
"Y  c #1D3354",
"T  c #1B3B51",
"R  c #14335B",
"E  c #1B355A",
"W  c #1C3C5D",
"Q  c #202F4C",
"!  c #2F3547",
"~  c #25314A",
"^  c #2D374D",
"/  c #373640",
"(  c #3C3840",
")  c #3C3E4B",
"_  c #203453",
"`  c #1B3D65",
"'  c #163D68",
"]  c #1B3F69",
"[  c #1B4055",
"{  c #1C415D",
"}  c #1D495F",
"|  c #3D4757",
" . c #1B4265",
".. c #1B4861",
"X. c #13406E",
"o. c #1B446C",
"O. c #1D546B",
"+. c #144772",
"@. c #1C4671",
"#. c #1D4B74",
"$. c #1E4F79",
"%. c #1B5077",
"&. c #1D5B74",
"*. c #1E537C",
"=. c #1F597D",
"-. c #204067",
";. c #2D4C65",
":. c #2D526F",
">. c #20547E",
",. c #235A7E",
"<. c #454249",
"1. c #424554",
"2. c #4D4F57",
"3. c #735642",
"4. c #755945",
"5. c #7C5D45",
"6. c #804F2A",
"7. c #82542F",
"8. c #805636",
"9. c #855835",
"0. c #8B5C36",
"q. c #845B3A",
"w. c #8A5E3A",
"e. c #8D623D",
"r. c #93643C",
"t. c #99673C",
"y. c #97683F",
"u. c #815D41",
"i. c #846146",
"p. c #8C6443",
"a. c #85654B",
"s. c #89694D",
"d. c #916541",
"f. c #956942",
"g. c #9B6D43",
"h. c #996D44",
"j. c #936D4C",
"k. c #9E7247",
"l. c #9C7149",
"z. c #947355",
"x. c #A27346",
"c. c #A3754A",
"v. c #A5794C",
"b. c #AB7C4D",
"n. c #A77D50",
"m. c #AA7E50",
"M. c #AB8055",
"N. c #B18555",
"B. c #B58959",
"V. c #1F5680",
"C. c #1F5B82",
"Z. c #205781",
"A. c #205C84",
"S. c #1F6287",
"D. c #206186",
"F. c #21658A",
"G. c #226B8E",
"H. c #22708F",
"J. c #226E91",
"K. c #237393",
"L. c #247A97",
"P. c #237698",
"I. c #257C9A",
"U. c #26829D",
"Y. c #2685A1",
"T. c #2887A1",
"R. c #278AA3",
"E. c #288CA4",
"W. c #298FA8",
"Q. c #2991A7",
"!. c #2A94A9",
"~. c #2C9AAE",
"^. c #2E9EB1",
"/. c #2EA2B3",
"(. c #30A6B7",
/* pixels */
"O O O O O O O O O O O O O O O O O O O O O O O O O O O O O O O O O O O O O O O O O O O O O O O O O O O O O O O O O O O O O O O O ",
"O O O O O O O O O O O O O O O O O O O O O O O O O O O O O O O O O O O O O O O O O O O O O O O O O O O O O O O O O O O O O O O O ",
"O O O O O O O O O O O O O O O O O O O O O O O O O O O O O O O O O O O O O O O O O O O O O O O O O O O O O O O O O O O O O O O O ",
"O O O O O O O O O O O O O O O O O O O O O O O O O O O O O O O O O O O O O O O O O O O O O O O O O O O O O O O O O O O O O O O O ",
"O O O O O O O O O O O O O O O O O O O O O O O O O O O O O O O O O O O O O O O O O O O O O O O O O O O O O O O O O O O O O O O O ",
"O O O O O O O O O O O O O O O O O O O O O O O O O O O O O O O O O O O O O O O O O O O O O O O O O O O O O O O O O O O O O O O O ",
"O O O O O O O O O O O O O O O O O O O O O O O O O O O O O O O O O O O O O O O O O O O O O O O O O O O O O O O O O O O O O O O O ",
"O O O O O O O O O O O O O O O O O O O O O O O O O O O O O O O O O O O O O O O O O O O O O O O O O O O O O O O O O O O O O O O O ",
"O O O O O O O O O O O O O O O O O O O O O O O O O O O O O O O O O O O O O O O O O O O O O O O O O O O O O O O O O O O O O O O O ",
"O O O O O O O O O O O O O O O O O O O O O O O O O O O O O O O O O O O O O O O O O O O O O O O O O O O O O O O O O O O O O O O O ",
"O O O O O O O O O O O O O O O O O O O O O O F O O O O O O O O O O O O O O O O O O O O O O O O O O O O O O O O O O O O O O O O O ",
"O O O O O O O O O O O O O O O O O O O O O F ..J O O O O O O O O O O O O O O O O O O O O O O O O O O O O O O O O O O O O O O O O ",
"O O O O O O O O O O O O O O O O O O O O O O F O O o D O 6 6 6 6 6 @ 6 @ O D o O O O O O O X O O O O O O O O O O O O O O O O O O ",
"O O O O O O O O O O O O O O O O O O O O O O O D O # # @ 2 V r.e.e.p.e.w.8 # # O O O O O F O.J O O O O O O O O O O O O O O O O O ",
"O O O O O O O O O O O O O O O O O O F O O O O = ; a a a 3 d.B.N.N.B.B.m.a a j - O O O O J O.J O O O O O O O O O O O O O O O O O ",
"O O O O O O O O O O O O O O O O O F &.L X O D @ w n.m.l.j q.f.v.v.k.l.l.l p.M.3 + D O O O X O O O O O O O O O O O O O O O O O O ",
"O O O O O O O O O O O O O O O O O O P F o = @ V h.h.x.g.j q.g.x.x.x.r.C k q.k.f.n @ O o O O O O O O O O O O O O O O O O O O O O ",
"O O O O O O O O O O O O O O O O O O X O = > a d.v.f.d.w.h M 3.3.3.4.m p j 8.f.b.e.a : O O O O O O O O O O O O O O O O O O O O O ",
"O O O O O O O O O O O O O O O O O O O D @ a m.h.r.g.C h x / I G G G G H n 9.d.e.g.c.5 $ D O O O O O O O O O O O O O O O O O O O ",
"O O O O O O O O O O O O O O O   O O = 6 e N g.g.f.7.i ~ ^ _ E W E E E E ~ i c r.g.f.h.N @ O X [ &.F O O O O O O O O O O O O O O ",
"O O O O O O O O O O O O O O F O.L o = 2 j N q.w.q.p ^ R  . .o.o.o.o. .W R ! p A e.f.v.C 2 O X T O.O O O O O O O O O O O O O O O ",
"O O O O O O O O O O O O O O F O.L O = 3 j l j l f U ` o.>.Z.*.V.Z.A.#.` ` R H e 8.f.g.V 7 = O O X O O O O O O O O O O O O O O O ",
"O O O O O O O O O O O O O O O X o # 0 e.f.d.k < L E @.*.$.F.K.K.P.C.$.$.` ` W Q i l k C d.0 # o O O O O O O O O O O O O O O O O ",
"O O O O O O O O O O O O O O O O o @ 4 q.g.l.0.) R o.$.*.F.G.F.F.F.G.G.F.#.o.` U y z q.d.v.5 @ o O O O O O O O O O O O O O O O O ",
"O O O O O O O O O O O O O O O O o @ q 8.h.c.i.| ' >.V.A.P.C.*.*.*.F.K.P.A.$.o.R ( b h.v.c.w $ o O O O O O O O O O O O O O O O O ",
"O O O O O O O O O O O O O O O O o @ w w.y.i.E ` @.*.J.P.C.@.` `  .` *.I.P.D.@.` E _ p.g.f.w $ o O O O O O O O O O O O O O O O O ",
"O O O O O O O O O O O O O O O O D @ w e.r.u.E o.*.J.G.A.@.] ] $.$.o.o.*.I.F.@.*. ._ f.x.h.q # o O X O O O O O O O O O O O O O O ",
"O O O O O O O O O O O O O O O O o @ q q.w.3.E o.A.I.F.#.@.#.*.F.F.#.o.] J.F.V.A.o.Y u.r.e.w @ o F T O O O O O O O O O O O O O O ",
"O O O O O O O O O O O O O O O O o @ 3 k k f E o.A.I.C.] @.G.I.I.I.S.$.o.*.G.I.A. .Y d j e 4 % o F { F O O O O O O O O O O O O O ",
"O O O O O O O O O O O O O O O O o @ w l.c.s.E =.J.F.#.o.J.I.I.C.C.K.G.*.@.F.I.A. .Y j.v.l.q $ o O O O O O O O O O O O O O O O O ",
"O O O O O O O O O O O O O F T F o @ w l.v.z.E A.P.$.@.#.I.K.G.C.V.G.J.J.@.A.I.A.o._ l.b.v.w $ o O O O O O O O O O O O O O O O O ",
"O O O O O O O O O O O O O F ..F o @ 5 w.x.z.E A.K. .#.C.I.D.*.A.C.*.F.R.#.D.I.Z.o.Y q.g.k.w @ o O O O O O O O O O O O O O O O O ",
"O O O O O O O O O O O O O O O O o @ w e.c.z.E C.K.@.#.C.U.F.A.I.F.*.F.Y.#.F.Y.A.o.Y p.x.c.w $ o O O O O O O O O O O O O O O O O ",
"O O O O O O O O O O O O O O O O o @ w d.g.a.E A.K.@.A.G.F.C.A.I.F.C.J.R.#.F.U.A.o._ p.g.f.q @ o O O O O O O O O O O O O O O O O ",
"O O O O O O O O O O O O O O O O o @ q q.w.3.E D.K.#.G.I.*.C.F.I.G.F.K.I.*.G.I.A. .Y S w.q.4 $ o O O O O O O O O O O O O O O O O ",
"O O O O O O O O O O O O O O O O o @ 3 0 h m E D.P.*.J.L.*.G.U.I.I.I.J.C.V.J.Y.V. .Y b h j 4 $ o O   O O O O O O O O O O O O O O ",
"O O O O O O O O O O O O O O O O o @ w f.g.a.W *.F.*.I.E.*.K.Y.U.I.W.I.A.F.K.I.C.o.Y j.c.f.w % . P O.O O O O O O O O O O O O O O ",
"O O O O O O O O O O O O O O O O o @ a c.M.z.` #.A.A.Y.!.D.J.I.T.Y.T.K.A.J.I.I.V.o.Y l.b.c.w $ . L O.O O O O O O O O O O O O O O ",
"O O O O O O O O O O O O O O O O o @ w q.c.z.` @.A.G.U.E.K.F.G.W.E.F.*.A.U.T.I.*.] E S r.f.q $ o O   O O O O O O O O O O O O O O ",
"O O O O O O O O O O O O O O X X o @ w d.y.i.` #.A.F.T.^.E.J.C.G.G.A.F.U.T.K.A.$. .E u.y.h.w $ o O O O O O O O O O O O O O O O O ",
"O O O O O O O O O O O O O X } O.O @ w d.r.5.` $.A.F.K.R.~.I.K.K.K.G.L.!.T.K.C.C.o.E q.y.g.5 $ o O O O O O O O O O O O O O O O O ",
"O O O O O O O O O O O O O X } O.o @ w e.r.5.] *.A.F.G.K.~.R.T.U.U.U.T.!.U.K.A.F.@.E S r.e.w $ o O O O O O O O O O O O O O O O O ",
"O O O O O O O O O O O O O O X X o @ 3 j h f ` #.F.R.L.K.L.!./.~.^./.!.U.J.G.G.F.@.E d a e 4 $ o O O O O O O O O O O O O O O O O ",
"O O O O O O O O O O O O O O O O o @ 4 C 9.3.` *.D.K.K.K.K.I.R.!.Q.Q.T.K.G.I.T.F.#.W Z C C 4 @ o O O O O O O O O O O O O O O O O ",
"O O O O O O O O O O O O O O O O o @ w q.g.s.] *.F.C.K.L.U.K.K.U.L.L.K.G.G.U.E.G.#.-.u.r.f.w $ D { L O O O O O O O O O O O O O O ",
"O O O O O O O O O O O O O O O O o @ 4 N r.a.` C.G.G.J.I.(.U.G.G.G.G.G.G.K.G.D.D.%.` 5.r.e.w $ o P J O O O O O O O O O O O O O O ",
"O O O O O O O O O O O O O O O O o @ 4 V 0.5.o.A.J.E.K.G.L.L.K.H.K.K.I.!.K.G.F.G.*.` u.r.e.5 $ o O O O O O O O O O O O O O O O O ",
"O O O O O O O O O O O O O O O ..K @ 4 N 9.3.o.C.G.R.L.G.H.K.L.U.L.K.I.!.K.H.K.G.*.` Z 0.q.4 $ D O O O O O O O O O O O O O O O O ",
"O O O O O O O O O O O O O O O T K @ 4 N x m o.C.F.F.K.I.L.K.I./.L.G.G.G.G.L.T.G.*.` b x N 4 $ D O O O O O O O O O O O O O O O O ",
"O O O O O O O O O O O O O O o & 6 1 2 0 3 9 X.C.G.I.L.I.~.U.K.I.K.K.K.K.L.K.G.G.*.' 7 3 3 2 1 @ O O O O O O O O O O O O O O O O ",
"O O O O O O O O O O O O O O o - 3 w j j k n 2.:.C.U.U.U.!.T.I.L.I.U.U.U.I.L.K.C.;.<.j k l N g 2 O O O O O O O O O O O O O O O O ",
"O O O O O O O O O O O O O O o - s N q.q.f.g.t.1.+.I.U.T.U.U.T.R.E.E.E.Q.L.L.L.X.<.6.p.f.f.c.q.7 O O O O O O O O O O O O O O O O ",
"O O O O O O O O O O O O O o # 3 a x C v C C B e u C.D.F.F.F.F.F.F.F.F.F.D.A.,.8 s x v C v C x g 3 # o O O O O O O O O O O O O O ",
"O O O O O O O O O O O O O O * @ > r t t t t t % , W W { { { { { { { { { { { W $ % t t t t r t r @ * o O O O O O O O O O O O O O ",
"O O O O O O O O O O O O O O o o o o . . o . . D D O X X X X X X X X X O X X O D D . D . . . . . o o O O O O O O O O O O O O O O ",
"O O O O O O O O O O O O O O O O O O O O O O O O O O O O O O O O O O O O O O O O O O O O O O O O O O O O O O O O O O O O O O O O ",
"O O O O O O O O O O O O O O O O O O O O O O O O O O O O O O O O O O O O O O O O O O O O O O O O O O O O O O O O O O O O O O O O ",
"O O O O O O O O O O O O O O O O O O O O O O O O O O O O O O O O O O O O O O O O O O O O O O O O O O O O O O O O O O O O O O O O ",
"O O O O O O O O O O O O O O O O O O O O O O O O O O O O O O O O O O O O O O O O O O O O O O O O O O O O O O O O O O O O O O O O ",
"O O O O O O O O O O O O O O O O O O O O O O O O O O O O O O O O O O O O O O O O O O O O O O O O O O O O O O O O O O O O O O O O ",
"O O O O O O O O O O O O O O O O O O O O O O O O O O O O O O O O O O O O O O O O O O O O O O O O O O O O O O O O O O O O O O O O ",
"O O O O O O O O O O O O O O O O O O O O O O O O O O O O O O O O O O O O O O O O O O O O O O O O O O O O O O O O O O O O O O O O ",
"O O O O O O O O O O O O O O O O O O O O O O O O O O O O O O O O O O O O O O O O O O O O O O O O O O O O O O O O O O O O O O O O ",
"O O O O O O O O O O O O O O O O O O O O O O O O O O O O O O O O O O O O O O O O O O O O O O O O O O O O O O O O O O O O O O O O "
};
