/* XPM */
static const char *player[] = {
/* columns rows colors chars-per-pixel */
"64 64 225 2 ",
"   c #190302",
".  c #1C0805",
"X  c #160C0E",
"o  c #1B0E0C",
"O  c #140D11",
"+  c #1D1313",
"@  c #1F191B",
"#  c #240C05",
"$  c #2B0F04",
"%  c #230E0A",
"&  c #2C1207",
"*  c #25120C",
"=  c #2C150C",
"-  c #2E190F",
";  c #32160A",
":  c #3A1608",
">  c #33190E",
",  c #3B1B0C",
"<  c #231512",
"1  c #291711",
"2  c #241816",
"3  c #2C1A13",
"4  c #231A1A",
"5  c #291C1A",
"6  c #321C11",
"7  c #3A1E11",
"8  c #372117",
"9  c #3D2113",
"0  c #33221B",
"q  c #3D2519",
"w  c #1E1E24",
"e  c #231F22",
"r  c #1D2027",
"t  c #1C222C",
"y  c #172535",
"u  c #17283B",
"i  c #172738",
"p  c #232125",
"a  c #2B2425",
"s  c #2A282A",
"d  c #312827",
"f  c #362A27",
"g  c #3A3B3A",
"h  c #4B1D06",
"j  c #421D0C",
"k  c #43210F",
"l  c #4C240E",
"z  c #502007",
"x  c #52250E",
"c  c #54290E",
"v  c #5C2B0F",
"b  c #442413",
"n  c #4B2612",
"m  c #4D2A15",
"M  c #44291B",
"N  c #4A2B1A",
"B  c #512711",
"V  c #532B15",
"C  c #5A2D15",
"Z  c #572D18",
"A  c #5E3116",
"S  c #56351E",
"D  c #5B331B",
"F  c #632D0E",
"G  c #682E0E",
"H  c #66300E",
"J  c #6C310E",
"K  c #72330E",
"L  c #79360E",
"P  c #642F10",
"I  c #633214",
"U  c #643419",
"Y  c #683918",
"T  c #6C3919",
"R  c #733C1A",
"E  c #783E1A",
"W  c #4C3425",
"Q  c #48352A",
"!  c #5E3D25",
"~  c #573D29",
"^  c #4B3C34",
"/  c #643D23",
"(  c #693D21",
")  c #703D21",
"_  c #7F4115",
"`  c #7B411B",
"'  c #7E431B",
"]  c #7F441C",
"[  c #4F4135",
"{  c #62442B",
"}  c #6D4529",
"|  c #6A4A2D",
" . c #744425",
".. c #7C4522",
"X. c #714B2C",
"o. c #7B4B28",
"O. c #6B4C31",
"+. c #704E31",
"@. c #6B5034",
"#. c #735333",
"$. c #7A5B39",
"%. c #554A42",
"&. c #644F40",
"*. c #695344",
"=. c #695648",
"-. c #7E6D5A",
";. c #894616",
":. c #80441B",
">. c #84461C",
",. c #9F581C",
"<. c #A65A1D",
"1. c #BC661E",
"2. c #874E29",
"3. c #94552C",
"4. c #855A34",
"5. c #905F39",
"6. c #A75E2E",
"7. c #A25E30",
"8. c #89653B",
"9. c #916B3D",
"0. c #9E683B",
"q. c #B4642E",
"w. c #BA642B",
"e. c #A86836",
"r. c #B66B36",
"t. c #AF723E",
"y. c #B4753D",
"u. c #CC6D1B",
"i. c #C36529",
"p. c #C66C2F",
"a. c #D16D2B",
"s. c #CD7121",
"d. c #D57420",
"f. c #D5722E",
"g. c #C26E32",
"h. c #CE7333",
"j. c #C7763A",
"k. c #D37533",
"l. c #D97834",
"z. c #D37B3B",
"x. c #DB7D3A",
"c. c #926D41",
"v. c #947042",
"b. c #9C7443",
"n. c #9B7749",
"m. c #836D58",
"M. c #8B7150",
"N. c #A06F43",
"B. c #A57645",
"V. c #A37B45",
"C. c #B67B45",
"Z. c #907A61",
"A. c #DD803B",
"S. c #E3853F",
"D. c #F48B3E",
"F. c #9C835C",
"G. c #A5814D",
"H. c #AD834A",
"J. c #B8874C",
"K. c #B58B4E",
"L. c #AC8956",
"P. c #B78B53",
"I. c #BB9354",
"U. c #B8925A",
"Y. c #98836A",
"T. c #9E8B71",
"R. c #B49869",
"E. c #A38F73",
"W. c #BDA373",
"Q. c #D78744",
"!. c #DC8642",
"~. c #D58D4E",
"^. c #CB8D52",
"/. c #C49655",
"(. c #C49957",
"). c #C19A5B",
"_. c #D79859",
"`. c #E38A43",
"'. c #E78B43",
"]. c #F48F42",
"[. c #E5924B",
"{. c #EB944B",
"}. c #EB954C",
"|. c #F7984B",
" X c #F6994D",
".X c #EB9B52",
"XX c #E19E5B",
"oX c #F39D51",
"OX c #CDA05B",
"+X c #D3A35C",
"@X c #E5A15C",
"#X c #EDA35B",
"$X c #EEA85E",
"%X c #F6A053",
"&X c #F2A65B",
"*X c #F3A95E",
"=X c #FAAB5C",
"-X c #C39F62",
";X c #CEA564",
":X c #CAA66A",
">X c #DDAD63",
",X c #D3AA68",
"<X c #D9B26E",
"1X c #C9AA72",
"2X c #D5B374",
"3X c #DBB472",
"4X c #D4B57B",
"5X c #DBBB7B",
"6X c #ECA862",
"7X c #F5AC60",
"8X c #FBAE61",
"9X c #E5B569",
"0X c #FFB364",
"qX c #FFBC69",
"wX c #E6B972",
"eX c #E2BE7C",
"rX c #D6BA81",
"tX c #DCBE82",
"yX c #DDC186",
"uX c #E3C485",
"iX c #E4C788",
"pX c #E6C989",
"aX c #ECCD8C",
"sX c #EED08D",
"dX c #F6D893",
/* pixels */
"u u u u u u u u u u u u u u u u u u u u u u u u u u u u u u u u u u u u u u u u u u u u u u u u u u u u u u u u u u u u u u u u ",
"u u u u u u u u u u u u u u u u u u u u u u u u u u u u u u u u u u u u u u u u u u u u u u u u u u u u u u u u u u u u u u u u ",
"u u u u u u u u u u u u u u u u u u u u u u u u u u u u u u u u u u u u u u u u u u u u u u u u u u u u u u u u u u u u u u u u ",
"u u u u u u u u u u u u u u u u u u u u u u u u y y y y y y y y y y y y y y y u u u u u u u u u u u u u u u u u u u u u u u u u ",
"u u u u u u u u u u u u u u u u u u u u u u u u e e e a d d d d d d d a a e t u u u u u u u u u u u u u u u u u u u u u u u u u ",
"u u u u u u u u u u u u u u u u u u u u u u u u 1 ; = n C C C C C C C C C ; 4 y y y u u u u u u u u u u u u u u u u u u u u u u ",
"u u u u u u u u u u u u u u u u u u u u u y e 3 b n b V Z V I R R R R D m n 9 4 5 4 u u u u u u u u u u u u u u u u u u u u u u ",
"u u u u u u u u u u u u u u u u u u u u u u 5 , Z Z C C C C Y :.' :.:.U Z D m ; ; > t u u u u u u u u u u u u u u u u u u u u u ",
"u u u u u u u u u u u u u u u u u u u y t = b Z C C V T ' :.R V R :.' ' ` ' T m V m > 5 u u u u u u u u u u u u u u u u u u u u ",
"u u u u u u u u u u u u u u u u u u u r e , m C C C A R ' T A V U E ' ] ' :.E U C V > 3 u u u u u u u u u u u u u u u u u u u u ",
"u u u u u u u u u u u u u u u u u u u 3 > Z Z Z V A :.:.' 6 7 C V C ' ] :.] ] >.I n > 4 y u u u u u u u u u u u u u u u u u u u ",
"u u u u u u u u u u u u u y u u u u u 3 > C C C T E :.T A > > 7 V A :.T I ] :.:.E T B b 3 p y u u u u u u u u u u u u u u u u u ",
"u u u u u u u u u u u u u u u u u u u 3 > V V Z E ` ` A m b 7 7 m C ' A V ` ' ` ] ' C n ; e y u u u u u u u u u u u u u u u u u ",
"u u u u u u u u u u y 2 & & w y u u u 3 ; = b Z C C C 7 * q.l.h.b > A > = Z C V E :.C n ; e y u u u u u u u u u u u u u u u u u ",
"u u u u u u u u u t w Q ~ W a w u u u 3 ; = b Z V V b D  .Q.'.x.b > b U  .b m V Y T n 9 ; e y u u u u u u u u u u u u u u u u u ",
"u u u u u u u u y p & m.T.=.M = u u u 3 > - n Z C m X 3.D.$X.Xk.9 * * 6.A.% > C V c > = ; e y u u u u u u u u u u u u u u u u u ",
"u u u u u u u u y p & &.-.Y.W * u u u 3 ; = > 7 = N 7.Q.&X8X*X.Xr.2.. t.&XJ.4.= B C > 3 t t u u u u u u u u u u u u u u u u u u ",
"u u u u u u u u y p = ^ =.Z.W = t u u 3 > N 7 > 7 ( ].~._.^._.7X].j.q b._.0XC.7 V B > 5 y u u u u u u u u u u u u u u u u u u u ",
"u u u u u u u u u u u 3 ; = l c = w y 1 b }. .= p.x.0X+.X X O.0X#X$X0X| + XX[.f.U * ; 3 y u u u u u u u u u u u u u u u u u u u ",
"u u u u u u u u u u u p 5 = l c l 8 e = N |. .= l.`.0X+.o o +.0X&X&X0X| 2 @X%X'.( * 5 p u u u u u u u u u u u u u u u u u u u u ",
"u u u u u u u u u u u y t - , n K x = = N  X .* !.}.0X| X o #.0X&X&X0X| 2 @X*X0X} * u y u u u u u u u u u u u u u u u u u u u u ",
"u u u u u u u u u u u u u t 5 , B v F ; > S 3.g.`.}.7X_.J.1 X.0X&X&X0X2.l #X*X8X} * u u u u u u u u u u u u u u u u u u u u u u ",
"u u u u u u u u u u u u u y e 6 b B v q 8 % ..g.`.{.*X=X8X/ 5.8X&X&X8Xe...#X&X8X} * u u u u u u u u u u u u u u u u u u u u u u ",
"u u u u u u u u u u u u u u u t - = % =.&., = 6 `. X7X*X&X7X7X7X7X7X7X7X7X&X*XqXX.# u u u u u u u u u u u u u u u u u u u u u u ",
"u u u u u u u u u u u u u u u t & W *.%.^ < 6 7 o.e.oX&X*X*X.X`.`.`.`..X*X8X^.4.Q w u u u u u u u u u u u u u u u u u u u u u u ",
"u u u u u u u u u u u u u u u u * *.E.[ s + 3 7 & D {..X*X*X[.a.f.f.a.[.$X8XN.  w y u u u u u u u u u u u u u u u u u u u u u u ",
"u u u u u u u u u u u u u y + 6 Z.m.=.0 2 > 1 < < 6 M e.|.=X8X&X&X&X=X|.`.N 0 u u y u u u u u u u u u u u u u u u u u u u u u u ",
"u u u u u u u u u u u u u w f ~ -.*.Q 3 < 6 3 3 3 3 o  .r.C.^..X}.[.C.r.e.! W p p p u u u u u u u u u u u u u u u u u u u u u u ",
"u u u u u u u u u u u y p $ m.T.g a o < < O 9 C B b + = > # R l.f.w.= & b (.v.# ; = u y u u u u u u u u u u u u u u u u u u u u ",
"u u u u u u u u u u u y t = M W 5 p t * 7 c.W = F v b 6 < $.y.f.k.h.w.U b H.H.V.H.V.8 4 y u u u u u u u u u u u u u u u u u u u ",
"u u u u u u u u u u u y t 3 1 * < w u 8 W OX@.5 I P v 9 1 v.J.h.k.k.k...S P.).>X>X;Xb 3 y u u u u u u u u u u u u u u u u u u u ",
"u u u u u u u u u u u u u u u u y e > b.I.uX).V.- ; J J J = { (.k.w., 4.I.tXuXuXiXrX6 < i u u u u u u u u u u u u u u u u u u u ",
"u u u u u u u u u u u u u u u u y e ; L.;XiX2X-X8.X.x F J l D #.y.e.= n.2XuXuX3XuXtX$.~ 4 t u u u u u u u u u u u u u u u u u u ",
"u u u u u u u u u u u u u u u u y e = U.wXuXiXiX9XP.% x K K x % G.V.  F.dXuXeX+XeXuX(.9.& p y u u u u u u u u u u u u u u u u u ",
"u u u u u u u u u u u u u u u t < { n.2XuXiX3X>X+X/.H.} j J J P N { R.4XiXiX5XI.$.~ ;Xn.# e y u u u u u u u u u u u u u u u u u ",
"u u u u u u u u u u u u u u u t & #.(.5XiXiX,X/.OX+X9X8.N I J K : N 4XtXuXiX2XK.S ; 3XL.b d t u u u u u u u u u u u u u u u u u ",
"u u u u u u u u u u u u u u y u . | K.5XiXsXb.Y H.).iX<X+X9 : K J I . F.dXiX2XK.! 9 ,X;XK.| = u u u u u u u u u u u u u u u u u ",
"u u u u u u u u u u u u u u r a { n.:XyXuX3X$.m H.).iXeX3XM.#.v J J h #.F.yX2XK.! 9 2X3X;X+.* u u u u u u u u u u u u u u u u u ",
"u u u u u u u u u u u u u y 2 b K.,XaXiX5XK.{ 6 V.).pXiXuXdXR.$ G K L , = yX5XI.! 9 tXiXdX$.. u y u u u u u u u u u u u u u u u ",
"u u u u u u u u u u u u u y 4 b K.I.).<X<X(.| 6 K.I.).5XsXaXtXW.! , k c I { { D b b U.;XwXP.c.0 4 y u u u u u u u u u u u u u u ",
"u u u u u u u u u u u u u y 4 9 v.b.b.J.J.b.~ 3 9.v.9.L.1XR.:XwXo.C U P v , : , > 9 9.V.P.H.b.9 4 y u u u u u u u u u u u u u u ",
"u u u u u u u u u u u u u y 5 ; = , z h h > 1 2 = - 7 6 6 = I u.u.s.d.Y * 6 6 > < < > , , , , ; 5 y u u u u u u u u u u u u u u ",
"u u u u u u u u u u u u u y 4 , 3.e.t.y.0.6 1 2 7 b n B v x :.s.;.;.s._ l c l k 3 2 3.e.B.C.B., 4 y u u u u u u u u u u u u u u ",
"u u u u u u u u u u u u u y 4 b S.oX0X0X@X9 1 2 b b B F J G ;.s.C c s.;.G J v l 3 5 !.%X0X0X7Xb 4 y u u u u u u u u u u u u u u ",
"u u u u u u u u u u u u u y 4 b z.[.*X`.!.@X| X 3 < < 1 3 + Y d.1.1.d.T + 3 < < < 3 Q.S.i.[.6Xb 4 y u u u u u u u u u u u u u u ",
"u u u u u u u u u u u u u y 4 b z.[.*X[.`.=X| X 3 3 3 3 3 < D <.,.<.<.D < 3 3 3 < 3 z.x.i.`.#Xb 4 y u u u u u u u u u u u u u u ",
"u u u u u u u u u u u u u y 4 b x.}.*X*X#X].} X 7 9 V V V V m n b b m m V V V Z 3 3 i.x.|.|.{.n 2 y u u u u u u u u u u u u u u ",
"u u u u u u u u u u u u u u t a D 7.'.S.z./ q - b n m m m V b 3 6 6 6 7 9 m m V 6 2 Z D ( ( ( a t u u u u u u u u u u u u u u u ",
"u u u u u u u u u u u u u u y t X ) h.p.q.+ * 7 m V m m m m 8 + + < < 3 7 m m V 6 < * * * * * u y u u u u u u u u u u u u u u u ",
"u u u u u u u u u u u u u u u u u a , , , 2 3 > m V m V V 3 @ u 4 < 6 b V m m V 6 + t u t u u u u u u u u u u u u u u u u u u u ",
"u u u u u u u u u u u u u u u u y t 4 4 4 < 3 6 b b m N b 1 @ y 2 * > 9 b m N b 3 2 u y u y u u u u u u u u u u u u u u u u u u ",
"u u u u u u u u u u u u u u u u u y y y t < 3 6 - 6 V 9 - * 4 y 4 < 6 - > m b - < 2 u u u u u u u u u u u u u u u u u u u u u u ",
"u u u u u u u u u u u u u u u u u u u u t = k v v c n 6 < w t u 4 = b k k l l v , 1 u u u u u u u u u u u u u u u u u u u u u u ",
"u u u u u u u u u u u u u u u u u u u u t = l H F v k 3 < t y u @ 3 k k k k l H j 1 u u u u u u u u u u u u u u u u u u u u u u ",
"u u u u u u u u u u u u u u u u u u u y t 1 - 6 6 > > = < t u u y t < 1 > 6 - - < + u y u u u u u u u u u u u u u u u u u u u u ",
"u u u u u u u u u u u u u u u u u u u w 4 6 k x x n > 4 w t u u y t < 1 > , k l l b 4 w u u u u u u u u u u u u u u u u u u u u ",
"u u u u u u u u u u u u u u u u u u u 2 = b C J J F > e y u u u u t < 1 > , l J J G = 4 y u u u u u u u u u u u u u u u u u u u ",
"u u u u u u u u u u u u u u u u u u u @ 3 P J J v l ; e y u u u y t < 1 > k n n F J G n 2 w y u u u u u u u u u u u u u u u u u ",
"u u u u u u u u u u u u u u u u u u u @ - C C c b 9 = e y u u u u t < 1 6 7 7 7 n v v n * w y u u u u u u u u u u u u u u u u u ",
"u u u u u u u u u u u u u u u u u u u 2 * < < < < < * w y u u u u t < * < < < < < < < < * w y u u u u u u u u u u u u u u u u u ",
"u u u u u u u u u u u u u u u u u u u t w r w w w w w t u u u u u t w w w w w w w w w w w t u u u u u u u u u u u u u u u u u u ",
"u u u u u u u u u u u u u u u u u u u y y y y y y y y u u u u u u u y y y y y y y y y y y u u u u u u u u u u u u u u u u u u u ",
"u u u u u u u u u u u u u u u u u u u u u u u u u u u u u u u u u u u u u u u u u u u u u u u u u u u u u u u u u u u u u u u u ",
"u u u u u u u u u u u u u u u u u u u u u u u u u u u u u u u u u u u u u u u u u u u u u u u u u u u u u u u u u u u u u u u u "
};
