/* XPM */
static const char *wall[] = {
/* columns rows colors chars-per-pixel */
"64 64 115 2 ",
"   c #3F281E",
".  c #18273A",
"X  c #17283B",
"o  c #18293B",
"O  c #2E292E",
"+  c #3D2921",
"@  c #352A2A",
"#  c #4E2A17",
"$  c #43271C",
"%  c #48271F",
"&  c #42291D",
"*  c #4E2B1A",
"=  c #512B17",
"-  c #512D1A",
";  c #56321C",
":  c #5A311F",
">  c #412A21",
",  c #4C2D23",
"<  c #512F21",
"1  c #4D3125",
"2  c #433029",
"3  c #4D3428",
"4  c #543323",
"5  c #5B3623",
"6  c #5E3A23",
"7  c #5D3C29",
"8  c #623722",
"9  c #643B24",
"0  c #6A3F25",
"q  c #633E28",
"w  c #674026",
"e  c #6D4126",
"r  c #66412A",
"t  c #6C4329",
"y  c #6D492C",
"u  c #724527",
"i  c #7A4A24",
"p  c #74492A",
"a  c #7B4D2C",
"s  c #7D532F",
"d  c #754D32",
"f  c #7D5632",
"g  c #5E4F4A",
"h  c #4B4F5D",
"j  c #614D43",
"k  c #66544C",
"l  c #7E5A44",
"z  c #635852",
"x  c #6C5951",
"c  c #665D59",
"v  c #7D5F55",
"b  c #7F6053",
"n  c #7B6851",
"m  c #43526C",
"M  c #4B566A",
"N  c #585F69",
"B  c #676C6E",
"V  c #75706D",
"C  c #79756E",
"Z  c #804F2E",
"A  c #83532F",
"S  c #88542C",
"D  c #87582F",
"F  c #895B2F",
"G  c #865531",
"H  c #895631",
"J  c #865A33",
"K  c #8B5B32",
"L  c #825B3A",
"P  c #925D35",
"I  c #8C6034",
"U  c #8F613C",
"Y  c #956236",
"T  c #996436",
"R  c #986338",
"E  c #9A6638",
"W  c #9A6739",
"Q  c #966838",
"!  c #9C6A39",
"~  c #9F6D3A",
"^  c #9B6C3C",
"/  c #9D6D3C",
"(  c #A26F37",
")  c #A16F3B",
"_  c #A3713A",
"`  c #A3753B",
"'  c #A2703D",
"]  c #A2753D",
"[  c #A7793E",
"{  c #AF7C38",
"}  c #A97B3F",
"|  c #AA7C3F",
" . c #AE7E3C",
".. c #B07F3D",
"X. c #886243",
"o. c #8C684D",
"O. c #966C41",
"+. c #966E47",
"@. c #92734A",
"#. c #9F7748",
"$. c #98714C",
"%. c #846454",
"&. c #856554",
"*. c #816C55",
"=. c #856659",
"-. c #8D7656",
";. c #AA7D40",
":. c #AD7E40",
">. c #B07E41",
",. c #907D64",
"<. c #917F6D",
"1. c #B28242",
"2. c #A8885C",
"3. c #96836B",
"4. c #9B876D",
/* pixels */
"o o o . o o o o o o o o o o o o o o . o o o o o o o o o o o . o X o o o o o o o X o o o o o o . o o o o X o o o o . . o o o o o ",
"o o o o o o o o o o o o o o o o o o o o o o o . o o o o o o o o o X X o o o o o o o o o o o o o o o o o o o o o o . o o o o o o ",
"o o o . o o o o o o o o o o o o o o o o o o o . . o o . . o o o o o o o o o o o o o . . o o o o o o o o o o o o o o o o o o o o ",
"o o o . o o o o o o o o o o o o o o o o o o o . o o o o o o o o o o o o o o o o o . o o o o o o o o o o o o o o o o o o o o o o ",
"o o o . o o o o o o o o o o o o o o o . . X o o X o . X X o o . X X . o o o o o o o o o o o o o o o o X . o . o o o o . o o X o ",
"o o o X o o X o o o o o o o o o o o o o o o o o o o o o X o o o o o . o o o o o o o o o o o o o o o o o o o . o o o o o o o o o ",
"o o o o o o o o o o o X o o o X o o o o o o o . o o o o . o o o . . o o o o o o o o o o o o o o o o o o o o o . o o . . o o o o ",
"o X o . o o o o o o o o o o o X . . o o o o o o o o o o o o o . . . . o o o o o o o o o o o o o o o o o o o o . o o o o o o o o ",
"o X o . o o o o o o o o o o o o o o o o o o o o o o o o o o o o o o o o X X o o o o o o o o o o o o o o o o o o o o o o o X o o ",
"o o o o o o o o o X X o o o o o o o o o o o o o o o o o o o o o o o o X o o o o o o o o o o o o o o o X o o o X o o o o o X o o ",
"o o o o o o o o o o o o o o o o o o o o o o o o o o o . o o o o o o o o o o o o o o o o o o o o X o o o o o o o o o o o o o o o ",
"o o o o o o o o o o o o o o o X o o o o o o o o o o o o o o o o o o o o o o o o o o o o o o o o X o o o o o o o o o o o o o o o ",
"o o o o o o o o o o o o o o o o X o o o o o o o o o o o o o o o o o o o o o o o o o o o o o o o o o o o o o o o o o o o o o o o ",
"o o o X o o o o o o o o o o o o o o o o o o o o o o o o o o o o o o o o o o o o o o o o o o o o o o o o o o X o o o o o o o o o ",
"o o X X X o X o o o X o o o o o o o o o o o o o o o o o o o o o o o o o o o o o o o o o o o o o o o o o X X o o o o . o o o o o ",
"o o X o X o o o o o o o o o o o o o o o o o o o o o o o o o o o o o o o o o o o o o o o o o o o o o o o o o o o o o X o o o o o ",
"o o o o o o o o o o o o o o o o o o o o X o o X X o o o o o o o o o o o o o o o o o o X o o o o o o o o o o o o o o o o o o o o ",
"o o o o o o o o o o o o o o o o o o o o o o o o o o o o o o o o o o o o o o o o o o o o o o o o o o o o o o o o o o o o o o o o ",
"o o o o o o o o o o o o o o o X o + & $ $ & $ $ & & & & $ & & & $ & $ $ & $ % & & & & $ $ & + o o o o o o o o o o o o o o o o o ",
"o o o o o o o o o o o o o X o o o & - 5 6 9 6 6 6 6 8 6 6 6 9 6 6 6 6 6 9 6 9 9 6 6 6 7 7 - > o o o o o o o o o o o o o o o o o ",
"o o o o o o X o o o o o o o o o o   5 =.$. .} | ;.} ;.} | } } } [ } } | ;.} } } }  .{ 2.4.4 + o o o o o o o o o o o o o o o X o ",
"o o o o o o o X o . o o o o o o o & 5 &.o.+.^ ~ / ! ~ ! ~ ~ ! ! ! ! ! ! ! ! ! ! ) O.n ,.3.4 + o o o o o o o X o o o o o o o o o ",
"o o o o o o o o o o o o X o o o o & 5 &.b v U Y P P P P P P K P P P K P P P P P P l m V <.4 + o o o o o o o o o o o o o o o o o ",
"o o X o o o X o o o o X o o o o o & ; d L O.a e e 0 5 5 6 6 5 5 5 6 6 6 6 5 0 e e a X.O.#.; + o o o o o o o o o o X o o o o o o ",
"o o o o o o o o o X o X o o o o o & ; u H ! u 9 e 0 4 4 , , , 4 4 , , < 4 4 0 0 5 u T _ ` ; + o o o o o o o o o o o o o X o o o ",
"o o o o o o o o o o o o o o o o o > ; p H E p e P Y R p > 5 8 u u , 4 5 a Y P K 9 u E ' ] ; + o o o o o o o o o o o o X o o o o ",
"o o o o o o o o o o o o o o o o o > ; p H ! r 6 K P P G p 0 8 u u 4 q s K Y P H 5 r E ' ] ; + o o o o o o o o o o o o o o o o o ",
"X o o X X o o o o o o o X o o o o & ; p H ! 7 , H K H Q 1.a : p p : p } E K P H , q R ' ] ; + o o o o o o o . o o o o o o o o o ",
"o X o o o o o X o o o X o o o o o > ; p H E 7 , 6 r H K Y Y I q q K Y Q Y P r 7 , q T ) ] ; + o o o o o o o X X o o o o o o o o ",
"o o o o o X o X o X o o o o o o o > ; p H E 6 , , 5 H H H ~ } 4 4 } ~ P P P 4 , , q T _ ] ; + o o o o o o o X o o o o X o o o o ",
"o o o o o o o o o o o o o o o o o > ; p A R 6 , 5 5 4 t K A a Y Q P P R y 4 6 8 , q Y ) ] ; + o o o o o o o o o X X o X o o o o ",
"o o o X o o o o o o o o o o o o o > ; p A R 6 , 0 0 , q G a a ~ ~ K K K q , 8 9 , q Y ~ ] ; + o o o o o o o o o o X o o o o o o ",
"o o X o o X X o o o o o o o o o o & ; p A Y 6 , H A 9 5 $ J [ P K Y a > 5 0 u u , q Y ~ ] ; + o o o o o o o o o o o o o o o o o ",
"o o X X o X o o o X X o o o o X o > ; p A Y 6 , H A 5 w y K ~ P K a u r q 8 u u , q Y ) ] ; + o o o o o o o o o o o X o o o o o ",
"o o o o o o o o X X o o o o o o o > ; p A E 6 , K A * a >.Y K P H ; 0 T e - u u , q Y ) ] ; + o o o o o o o X X o o o o X o o o ",
"o o o X o o o o o o o o o o o o o > ; p A R 6 , u a I Y E P P u u p Z P K I 0 5 , q Y ' ] ; + o o o o o o o o o o X o o o X o o ",
"X o o o o o o o X o o o o o o o o & ; p H R 6 , 9 p :.) P Y P 9 8 G H K ! } 6 , , q R ' ] ; + o o o o o o o o o o X o o o o o o ",
"o o o o o o o o X o o o o o o o o & ; p H E 7 1 Y E Y Y E p 8 u t 1 q H K Y E I , q T ' ] ; + o o o o X X X X o o X o o o o X o ",
"o o o o o o o o o o o o o o o o o > ; p H E 7 3 E ~ P K K r 4 p p , 6 a H P ' E 1 r R ' ] ; + o o o o o o o X o o o o o o o o o ",
"X o X o o X X o o o o o o o o o o > ; p A Y u 0 K P T d 2 6 9 A G 9 5 , p P P K e p R ~ ] ; + o o o X o o o o o o X o o o X X X ",
"o o o X o o o o o o o o o o o o o > ; p H R u e A A a r 1 5 5 u u 8 5 , r a A A e p R ~ ] ; + o o o o o o X X o o o o o o o X o ",
"o o . X X X o o X o o X o o o o o > ; i S T e 8 9 5 % % % % > % % % % % % % 5 9 5 u T ( ` ; + o o o o X o X X o o X o X o o X o ",
"o X o o X X o o o o o o o o o o o & 4 g k x L K K J f f f f f f f f s s s f J K F L x *.-.; + o o o o o o o X o X X o X X o o X ",
"o o o o o o o o o o o o o o o o o & 3 M M m @. .;.:.:.:.:.:.:.:.:. . .:.:.:.| ;...@.m B C 4 + o o o o o o o o o o o X o X o o X ",
"o X o o o o o o o X o o o o o o o & 3 M z f J K K K K K K F J J D J K K K K K K K J f c N 4 + o o o o o o o o o o o o o o o o o ",
"o o o o o o o o o o o o o o o o o & 1 h j i p p p p p p p p p p p p p p p p p p p p i g h * + o o . o o o o o o o o o o o o o o ",
"o . o o o X o o o o o o o o o o o & # # # # # # # # # # # # # # # # # # # # # # # # # # # = > o o o o o o X X o o o o X . o o . ",
"o o o o o o o o o o o o o o o o o O @ @ @ @ @ @ @ @ @ @ @ @ @ @ @ @ @ @ @ @ @ @ @ @ @ @ @ @ O o o o o o X X o o o o o X o o o X ",
"o o X o o X o o o X o o o o o o o o o o o o o o o o o o o o o o o o o o o o o o o o o o o o o o o X o X . o o o o o o o o o X . ",
"o X X X o X o o X X o X o o o o X o o . o o o o o o o o o o o o o o o o o . o o o o o o o o o X o o X X o o o o o o o . o o X . ",
"o o X X X o o o o o X o o X o X X . o o X o o o o o o X X o o . o o o o . . o o o o o o o o o X X o X X o o o o o o o . o o o o ",
"o o o o o . o o o X X o o o o X X o o o o o o o o o o X o o X o o o o o o o o o o o o o o o o X X o X X o . X o o o o o o o X o ",
"o o o o o o o o o o X o o o o o o o o o o o o o o o o o o o X X o o o o o o o o o o o o o o o o o o o o o . X o o o o o o o o o ",
"o o o o o o o o o o o o o o o o o o o o o o o o o o o o o o o o o o o o o o o . o o o o o o o o X o o o o o X X o o o o o o o o ",
"o o . . o o . o o o o o o o o o o o o X o o o o o o o . X X o o o o o o o o o o o X o o o o o X o o X X o o o X o o o . o . . o ",
"o o X X o X o o o o o o o o o X X o o o X o o o o o o o o o o o . . . o o o o o o o o o o o o X o o o o o o . o o o o o o . . o ",
"o o o o o o o o o o o X o o o o o o . . X o o o o o o o o o o o o . o o o o . o o o o o o o o o X o o o o o o o o o o o o o o o ",
"o o o X o o o o o o o o o o X o o o o o o o o X o o o o o X o o . . o o o o o o o o o o o o o X o o o o o o o o o . o . o o o o ",
"o X o X o o o o o o o o o X X o o o o o X o o o o o o o o o o o o . o X o o o o o o o o o o o o o o o o o . o o o o o o o o . o ",
"X X . . o o o o X o o o o o X o X o o X o o o o o X o o o o o o X . . X X o o o o o . o o o o o o o o o o X o o o o o o o o o . ",
"o o . o o o o o o o o o o o o X o o o o o o o o o o o o o X o o o o o o o o o o o o o o o o o o X X o o X o o o o o o o o o . . ",
"o o o o o o o o o o o o o o o o o o o o o o o o o o o o X X o o o o o o o o o o o o o o o o o o X o X X o o o o o o o o o o o o ",
"o o o o o o o o o o . o o o o o o o o o o o o o o o o o o o o o o o o o o o o o o o o o o o o o o X o o o o o o o o o o o o o . ",
"o o . o o o o o X o o o o o o o o . o o o o o X X o o . o o o o X X o o o o o o o X o X X o o o X X o X . o o . o o o o o o . . "
};
