/* XPM */
static char *crystal_xpm[] = {
"32 32 6 1",
"  c None",
". c #4A3B00",
"# c #FFC107",
"@ c #FFB300",
"$ c #FFD54F",
"% c #FFF59D",
"                                ",
"                                ",
"                                ",
"                                ",
"                                ",
"                                ",
"               ..               ",
"              .##.              ",
"             .#@@#.             ",
"            .#@$$@#.            ",
"           .#@$$$%@#.           ",
"          .#@$$%%%$@#.          ",
"         .#@$$%###%$@#.         ",
"        .#@$$%#####%$@#.        ",
"       .#@$$%#######%$@#.       ",
"      .#@$$%#########%$@#.      ",
"       .#@$$%#######%$@#.       ",
"        .#@$$%#####%$@#.        ",
"         .#@$$%###%$@#.         ",
"          .#@$$%%%$@#.          ",
"           .#@$$$%@#.           ",
"            .#@$$@#.            ",
"             .#@@#.             ",
"              .##.              ",
"               ..               ",
"                                ",
"                                ",
"                                ",
"                                ",
"                                ",
"                                ",
"                                "};


