/* XPM */
static char *dynamite[] = {
/* columns rows colors chars-per-pixel */
"32 32 22 1 ",
"  c None",
". c #000000",
"+ c #330000",
"@ c #660000",
"# c #800000",
"$ c #990000",
"% c #b30000",
"& c #cc0000",
"* c #e60000",
"= c #ff0000",
"- c #ff3333",
"; c #ff6666",
"> c #ff9999",
", c #ffcccc",
"' c #ffffff",
") c #4d2600",
"! c #663300",
"~ c #804000",
"{ c #996633",
"] c #cc9966",
"^ c #ffcc00",
"/ c #ffff00",
/* pixels */
"                                ",
"                                ",
"        .^^^/^^.                ",
"       .^//////^.               ",
"      .^^////^^.                ",
"     .^^^//^^^.                 ",
"    .^^^^//^^^^.                ",
"   .^^^^^/^^^^^.                ",
"  .^^^^^^/^^^^^^.               ",
" .^^^^^^/^^^^^^.                ",
".^^^^^/^^^^^.                   ",
".^^^/^^^.                       ",
".]/].                           ",
".~~!.                           ",
".)).                            ",
".~~!.                           ",
".!!~.          ............     ",
".!!~.         .'>,-;-*=&%$@.    ",
".!!~.         .'>,-;-*=&%$@.    ",
".!!~.         .'>,-;-*=&%$@.    ",
".!!~.         .'>,-;-*=&%$@.    ",
".!!~.         .'>,-;-*=&%$@.    ",
".!!~.         .'>,-;-*=&%$@.    ",
".!!~.         .'>,-;-*=&%$@.    ",
".!!~.         .'>,-;-*=&%$@.    ",
".!!~.         .'>,-;-*=&%$@.    ",
".!!~.         .'>,-;-*=&%$@.    ",
".!!~.         .'>,-;-*=&%$@.    ",
".!!~.          .'>,;-*=&%$@.    ",
".!!~.           .'>,-*=&%$.     ",
" .!!.            .'>,*=&.       ",
"  ..              .....         "
};