/* XPM */
static char *portal_xpm[] = {
"32 32 6 1",
"  c None",
". c #0C0F1A",
"+ c #3B1F5D",
"@ c #5A2D91",
"# c #8B5CF6",
"$ c #B4A1FF",
"                                ",
"                                ",
"            ++++++++            ",
"          ++++++++++++          ",
"         ++++++++++++++         ",
"        ++++########++++        ",
"       +++##$$$$$$$$##+++       ",
"      +++##$$######$$##+++      ",
"      ++##$$########$$##++      ",
"     ++##$$###++++###$$##++     ",
"     ++#$$##++####++##$$#++     ",
"    ++#$$##++######++##$$#++    ",
"    ++#$$#++##@@@@##++#$$#++    ",
"    ++#$$#++#@@@@@@#++#$$#++    ",
"    ++#$$#++##@@@@##++#$$#++    ",
"    ++#$$##++######++##$$#++    ",
"     ++#$$##++####++##$$#++     ",
"     ++##$$###++++###$$##++     ",
"      ++##$$########$$##++      ",
"      +++##$$######$$##+++      ",
"       +++##$$$$$$$$##+++       ",
"        ++++########++++        ",
"         ++++++++++++++         ",
"          ++++++++++++          ",
"            ++++++++            ",
"                                ",
"                                ",
"                                ",
"                                ",
"                                ",
"                                ",
"                                "};
