/* XPM */
static char *portal_xpm[] = {
"32 32 6 1",
"  c None",
". c #1B2A1A",
"+ c #4B6B2D",
"@ c #6B6F76",
"# c #2F3F2A",
"$ c #C2B280",
"                                ",
"                                ",
"            @@@@@@@@@@          ",
"          @@@@@@@@@@@@@@        ",
"         @@@++++++++++@@@       ",
"        @@++##########++@@      ",
"       @@+##++++++++++##+@@     ",
"      @@+##+@@@@@@@@@@+##+@@    ",
"      @+##+@$$$$$$$$$$@+##+@    ",
"     @+##+@$$++++++++$$@+##+@   ",
"     @+##+@$+#######+$@+##+@    ",
"    @+##+@$$+#######+$$@+##+@   ",
"    @+##+@$$+##@@###+$$@+##+@   ",
"    @+##+@$$+##@@###+$$@+##+@   ",
"    @+##+@$$+#######+$$@+##+@   ",
"     @+##+@$+#######+$@+##+@    ",
"     @+##+@$$++++++++$$@+##+@   ",
"      @+##+@$$$$$$$$$$@+##+@    ",
"      @@+##+@@@@@@@@@@+##+@@    ",
"       @@+##++++++++++##+@@     ",
"        @@++##########++@@      ",
"         @@@++++++++++@@@       ",
"        ....@.@....@.@....      ",
"        ....@.@....@.@....      ",
"            @@@@$$@@@@          ",
"            ++++$$++++          ",
"            @@@@$$@@@@          ",
"        ....@.@....@.@....      ",
"        ....@.@....@.@....      ",
"                                ",
"                                ",
"                                "};
