/* XPM */
static char *tree_wall_xpm[] = {
"32 32 7 1",
"  c None",
". c #2B2E1B",
"+ c #3B5D28",
"@ c #4D7A34",
"# c #6FA244",
"$ c #8BC34A",
"% c #5C9133",
"................................",
"................................",
"..++++++++++++++++++++++++++++..",
".++++++++++++++++++++++++++++++.",
".++++++++++++++++++++++++++++++.",
".++++@@@@@@+++++@@@@@@++++@@+++.",
".+++@@@@@@@+++++@@@@@@++++@@+++.",
".+++@@@@@@@+++++@@@@@@++++@@+++.",
".+++@@@@@@@+++++@@@@@@++++@@+++.",
".+++@@@@@@@+++++@@@@@@++++@@+++.",
".+++@@@@@@@+++++@@@@@@++++@@+++.",
".+++@@@@@@@+++++@@@@@@++++@@+++.",
".+++@@@@@@@+++++@@@@@@++++@@+++.",
".+++@@@@@@@+++++@@@@@@++++@@+++.",
".+++@@@@@@@+++++@@@@@@++++@@+++.",
".+++@@@@@@@+++++@@@@@@++++@@+++.",
".+++@@@@@@@+++++@@@@@@++++@@+++.",
".+++@@@@@@@+++++@@@@@@++++@@+++.",
".+++@@@@@@@+++++@@@@@@++++@@+++.",
".%%%%%#####%%%%%#####%%%%%##%%%.",
".%#####$$$$%#####$$$$%#####$$$%.",
".%#####$$$$%#####$$$$%#####$$$%.",
".%%%%%#####%%%%%#####%%%%%##%%%.",
"................................",
"................................",
"................................",
"................................",
"................................",
"................................",
"................................",
"................................",
"................................"};
