/* XPM */
static char *wizard_xpm[] = {
"32 32 8 1",
"  c None",
". c #1B1F23",
"+ c #2F3E2E",
"@ c #4A5D41",
"# c #728C66",
"$ c #A0B49C",
"% c #C9D6C8",
"& c #8A4B2E",
"                                ",
"                                ",
"             ++++++++           ",
"            +@@@@@@@@+          ",
"           +@######@@@+         ",
"           +@#######@@+         ",
"           +@#######@@+         ",
"           +@#######@@+         ",
"           +@###$$###@+         ",
"            +@#$$$#@+           ",
"             ++...++            ",
"           +++.....+++          ",
"          ++.........++         ",
"          +@#########@+         ",
"         +@###########@+        ",
"        +@@###########@@+       ",
"        +@@@###########@@+      ",
"        +@@@###%%%###@@@+       ",
"        +@@@##%%%%%##@@@+       ",
"        +@@@##%%%%%##@@@+       ",
"        +@@@###%%%###@@@+       ",
"        +@@@###########@@+      ",
"        +@@###########@@+       ",
"         +@###########@+        ",
"          +@##&@@@&##@+         ",
"          ++&&&&&&&&++          ",
"           +&&&&&&&&+           ",
"           +&&++++&&+           ",
"           ++......++           ",
"            ++++++++            ",
"                                ",
"                                "};
